<svg xmlns="http://www.w3.org/2000/svg" version="1.1" xmlns:xlink="http://www.w3.org/1999/xlink" xmlns:svgjs="http://svgjs.dev/svgjs" width="2000" height="1500" viewBox="0 0 2000 1500"><rect width="2000" height="1500" fill="#ffffff"></rect><g transform="matrix(0.75,0,0,0.75,249.090909090909,593.3543418287586)"><svg viewBox="0 0 396 83" data-background-color="#ffffff" preserveAspectRatio="xMidYMid meet" height="419" width="2000" xmlns="http://www.w3.org/2000/svg" xmlns:xlink="http://www.w3.org/1999/xlink"><g id="tight-bounds" transform="matrix(1,0,0,1,0.2400000000000091,-0.126604206163762)"><svg viewBox="0 0 395.52 83.25320841232751" height="83.25320841232751" width="395.52"><g><svg viewBox="0 0 395.52 83.25320841232751" height="83.25320841232751" width="395.52"><g><svg viewBox="0 0 552.9947750037147 116.40015487032875" height="83.25320841232751" width="395.52"><g><rect width="10.444861782254799" height="116.40015487032875" x="119.68734311084529" y="0" fill="#196eed" opacity="1" stroke-width="0" stroke="transparent" fill-opacity="1" class="rect-qz-0" data-fill-palette-color="primary" rx="1%" id="qz-0" data-palette-color="#196eed"></rect></g><g transform="matrix(1,0,0,1,157.47477500371474,0.2895526240555384)"><svg viewBox="0 0 395.52 115.82104962221767" height="115.82104962221767" width="395.52"><g id="textblocktransform"><svg viewBox="0 0 395.52 115.82104962221767" height="115.82104962221767" width="395.52" id="textblock"><g><svg viewBox="0 0 395.52 115.82104962221767" height="115.82104962221767" width="395.52"><g transform="matrix(1,0,0,1,0,0)"><svg width="395.52" viewBox="3.25 -35.01 119.55 35.01" height="115.82104962221767" data-palette-color="#196eed"><path d="M31.25-10.5L31.25-10.5Q31.25-8.33 30.42-6.42 29.59-4.52 28.16-3.09 26.73-1.66 24.83-0.83 22.92 0 20.75 0L20.75 0 3.25 0 3.25-35.01 20.75-35.01Q22.92-35.01 24.83-34.18 26.73-33.35 28.16-31.92 29.59-30.49 30.42-28.59 31.25-26.68 31.25-24.51L31.25-24.51Q31.25-23.54 30.98-22.51 30.71-21.48 30.22-20.53 29.74-19.58 29.05-18.8 28.37-18.02 27.54-17.5L27.54-17.5Q28.39-17.04 29.08-16.25 29.76-15.45 30.25-14.5 30.74-13.55 30.99-12.51 31.25-11.47 31.25-10.5ZM10.25-13.99L10.25-7.01 20.75-7.01Q21.48-7.01 22.12-7.28 22.75-7.54 23.23-8.02 23.71-8.5 23.97-9.13 24.24-9.77 24.24-10.5L24.24-10.5Q24.24-11.23 23.97-11.87 23.71-12.5 23.23-12.98 22.75-13.45 22.12-13.72 21.48-13.99 20.75-13.99L20.75-13.99 10.25-13.99ZM10.25-28L10.25-21 20.75-21Q21.48-21 22.12-21.26 22.75-21.53 23.23-22.01 23.71-22.49 23.97-23.13 24.24-23.78 24.24-24.51L24.24-24.51Q24.24-25.24 23.97-25.88 23.71-26.51 23.23-26.99 22.75-27.47 22.12-27.73 21.48-28 20.75-28L20.75-28 10.25-28ZM60.54-7.01L60.54 0 36.55 0 36.55-35.01 60.54-35.01 60.54-28 43.55-28 43.55-21 55.05-21 55.05-13.99 43.55-13.99 43.55-7.01 60.54-7.01ZM90.45-7.01L90.45 0 63.35 0 78.29-28 63.35-28 63.35-35.01 90.45-35.01 75.56-7.01 90.45-7.01ZM122.8-10.5L122.8-10.5Q122.8-8.33 121.97-6.42 121.14-4.52 119.71-3.09 118.28-1.66 116.37-0.83 114.47 0 112.3 0L112.3 0 94.79 0 94.79-35.01 112.3-35.01Q114.47-35.01 116.37-34.18 118.28-33.35 119.71-31.92 121.14-30.49 121.97-28.59 122.8-26.68 122.8-24.51L122.8-24.51Q122.8-23.54 122.53-22.51 122.26-21.48 121.77-20.53 121.28-19.58 120.6-18.8 119.91-18.02 119.08-17.5L119.08-17.5Q119.94-17.04 120.62-16.25 121.31-15.45 121.79-14.5 122.28-13.55 122.54-12.51 122.8-11.47 122.8-10.5ZM101.8-13.99L101.8-7.01 112.3-7.01Q113.03-7.01 113.66-7.28 114.3-7.54 114.78-8.02 115.25-8.5 115.52-9.13 115.79-9.77 115.79-10.5L115.79-10.5Q115.79-11.23 115.52-11.87 115.25-12.5 114.78-12.98 114.3-13.45 113.66-13.72 113.03-13.99 112.3-13.99L112.3-13.99 101.8-13.99ZM101.8-28L101.8-21 112.3-21Q113.03-21 113.66-21.26 114.3-21.53 114.78-22.01 115.25-22.49 115.52-23.13 115.79-23.78 115.79-24.51L115.79-24.51Q115.79-25.24 115.52-25.88 115.25-26.51 114.78-26.99 114.3-27.47 113.66-27.73 113.03-28 112.3-28L112.3-28 101.8-28Z" opacity="1" transform="matrix(1,0,0,1,0,0)" fill="#196eed" class="wordmark-text-0" data-fill-palette-color="primary" id="text-0"></path></svg></g></svg></g></svg></g></svg></g><g transform="matrix(1,0,0,1,0,18.183904790688167)"><svg viewBox="0 0 92.34477300023063 80.03234528895241" height="80.03234528895241" width="92.34477300023063"><g><svg xmlns="http://www.w3.org/2000/svg" xmlns:xlink="http://www.w3.org/1999/xlink" version="1.1" x="0" y="0" viewBox="264.25 314.749 442.5 383.501" enable-background="new 0 0 1000 1000" xml:space="preserve" height="80.03234528895241" width="92.34477300023063" class="icon-icon-0" data-fill-palette-color="accent" id="icon-0"><g fill="#196eed" data-fill-palette-color="accent"><rect x="618.25" y="668.75" width="88.5" height="29.5" fill="#196eed" data-fill-palette-color="accent"></rect><rect x="618.25" y="609.75" width="88.5" height="29.5" fill="#196eed" data-fill-palette-color="accent"></rect><rect x="618.25" y="550.749" width="88.5" height="29.5" fill="#196eed" data-fill-palette-color="accent"></rect><rect x="618.25" y="491.749" width="88.5" height="29.5" fill="#196eed" data-fill-palette-color="accent"></rect><rect x="618.25" y="432.749" width="88.5" height="29.5" fill="#196eed" data-fill-palette-color="accent"></rect><rect x="500.25" y="668.75" width="88.5" height="29.5" fill="#196eed" data-fill-palette-color="accent"></rect><rect x="500.25" y="609.75" width="88.5" height="29.5" fill="#196eed" data-fill-palette-color="accent"></rect><rect x="500.25" y="550.749" width="88.5" height="29.5" fill="#196eed" data-fill-palette-color="accent"></rect><rect x="500.25" y="491.749" width="88.5" height="29.5" fill="#196eed" data-fill-palette-color="accent"></rect><rect x="500.25" y="432.749" width="88.5" height="29.5" fill="#196eed" data-fill-palette-color="accent"></rect><rect x="500.25" y="373.749" width="88.5" height="29.5" fill="#196eed" data-fill-palette-color="accent"></rect><rect x="500.25" y="314.749" width="88.5" height="29.5" fill="#196eed" data-fill-palette-color="accent"></rect><rect x="382.25" y="668.75" width="88.5" height="29.5" fill="#196eed" data-fill-palette-color="accent"></rect><rect x="382.25" y="609.75" width="88.5" height="29.5" fill="#196eed" data-fill-palette-color="accent"></rect><rect x="382.25" y="550.749" width="88.5" height="29.5" fill="#196eed" data-fill-palette-color="accent"></rect><rect x="382.25" y="491.749" width="88.5" height="29.5" fill="#196eed" data-fill-palette-color="accent"></rect><rect x="264.25" y="668.75" width="88.5" height="29.5" fill="#196eed" data-fill-palette-color="accent"></rect><rect x="264.25" y="609.75" width="88.5" height="29.5" fill="#196eed" data-fill-palette-color="accent"></rect><rect x="264.25" y="550.749" width="88.5" height="29.5" fill="#196eed" data-fill-palette-color="accent"></rect></g></svg></g></svg></g></svg></g></svg></g><defs></defs></svg><rect width="395.52" height="83.25320841232751" fill="none" stroke="none" visibility="hidden"></rect></g></svg></g></svg>